<svg width="22" height="22" viewBox="0 0 22 22" fill="none" xmlns="http://www.w3.org/2000/svg">
<path fill-rule="evenodd" clip-rule="evenodd" d="M14.5558 20.8804C11.3626 19.974 8.34968 18.2637 5.83804 15.752C3.32641 13.2404 1.61606 10.2275 0.709723 7.03424C0.70435 7.01531 0.699017 6.99654 0.693726 6.97793C0.546218 6.45891 0.431832 6.05644 0.430189 5.50455C0.428311 4.87378 0.633818 4.08354 0.942748 3.53359C1.47403 2.58782 2.61479 1.37577 3.60012 0.877398C4.45146 0.446792 5.45686 0.446792 6.3082 0.877398C7.15044 1.3034 8.08843 2.25696 8.61134 3.06122C9.25783 4.05556 9.25783 5.33743 8.61134 6.33176C8.4381 6.59821 8.19117 6.84473 7.90451 7.1309C7.81525 7.22001 7.717 7.2844 7.78225 7.42029C8.43007 8.76957 9.31356 10.0352 10.4342 11.1558C11.5549 12.2765 12.8205 13.16 14.1698 13.8078C14.3105 13.8754 14.3659 13.779 14.4592 13.6856C14.7454 13.3989 14.9919 13.152 15.2583 12.9787C16.2527 12.3322 17.5345 12.3322 18.5289 12.9787C19.3116 13.4877 20.29 14.4462 20.7127 15.2819C21.1433 16.1332 21.1433 17.1386 20.7127 17.99C20.2143 18.9753 19.0023 20.116 18.0565 20.6473C17.5065 20.9563 16.7163 21.1618 16.0855 21.1599C15.5336 21.1582 15.1312 21.0439 14.6122 20.8964C14.5935 20.8911 14.5748 20.8857 14.5558 20.8804Z" fill="#FFDE59"/>
</svg>
