<svg width="22" height="18" viewBox="0 0 22 18" fill="none" xmlns="http://www.w3.org/2000/svg">
<path fill-rule="evenodd" clip-rule="evenodd" d="M14.8238 0.115482C14.4162 -0.000937156 13.9874 -0.000464614 13.5006 7.18279e-05L5.7587 0.000144903C4.95373 0.000132148 4.28937 0.000121657 3.74817 0.044339C3.18608 0.0902642 2.66937 0.188828 2.18404 0.436119C1.43139 0.819613 0.819468 1.43154 0.435974 2.18418C0.188683 2.66952 0.0901184 3.18622 0.0441933 3.74832C-2.28882e-05 4.28951 -1.33514e-05 4.95386 0 5.75882V12.2415C-1.33514e-05 13.0464 -2.28882e-05 13.7108 0.0441933 14.252C0.0901184 14.8141 0.188683 15.3308 0.435974 15.8161C0.819468 16.5688 1.43139 17.1807 2.18404 17.5642C2.66937 17.8115 3.18608 17.91 3.74817 17.956C4.28936 18.0002 4.95372 18.0002 5.75868 18.0001L13.5006 18.0002C13.9874 18.0008 14.4162 18.0012 14.8238 17.8848C15.1815 17.7827 15.5171 17.6149 15.8134 17.39C16.1511 17.1338 16.4081 16.7904 16.6997 16.4007L21.08 10.5601L21.1351 10.4871C21.3335 10.2251 21.5822 9.8965 21.6841 9.50928C21.772 9.17554 21.772 8.82475 21.6841 8.49101C21.5822 8.10379 21.3335 7.77522 21.1351 7.51315L21.08 7.44015L16.6997 1.59963C16.4081 1.20987 16.1511 0.866532 15.8134 0.610273C15.5171 0.385417 15.1815 0.217634 14.8238 0.115482ZM5.29289 5.29289C4.90237 5.68342 4.90237 6.31658 5.29289 6.70711L7.58579 9L5.29289 11.2929C4.90237 11.6834 4.90237 12.3166 5.29289 12.7071C5.68342 13.0976 6.31658 13.0976 6.70711 12.7071L9 10.4142L11.2929 12.7071C11.6834 13.0976 12.3166 13.0976 12.7071 12.7071C13.0976 12.3166 13.0976 11.6834 12.7071 11.2929L10.4142 9L12.7071 6.70711C13.0976 6.31658 13.0976 5.68342 12.7071 5.29289C12.3166 4.90237 11.6834 4.90237 11.2929 5.29289L9 7.58579L6.70711 5.29289C6.31658 4.90237 5.68342 4.90237 5.29289 5.29289Z" fill="#C90202"/>
</svg>
