<svg xmlns="http://www.w3.org/2000/svg" xmlns:xlink="http://www.w3.org/1999/xlink" xmlns:inkscape="http://www.inkscape.org/namespaces/inkscape" version="1.1" width="24" height="24" viewBox="0 0 24 24">
<path transform="matrix(1,0,0,-1,0,24)" d="M0 20C0 22.209139 1.790861 24 4 24H20C22.209139 24 24 22.209139 24 20V4C24 1.790861 22.209139 0 20 0H4C1.790861 0 0 1.790861 0 4V20Z" fill="#e0e0e0"/>
<path transform="matrix(1,0,0,-1,5,16.195313)" d="M.292893 7.902419C.683417 8.292944 1.316583 8.292944 1.707107 7.902419L7 2.609526 12.292893 7.902419C12.683417 8.292944 13.316583 8.292944 13.707107 7.902419 14.097631 7.511895 14.097631 6.87873 13.707107 6.488206L7.707107 .488206C7.316583 .097681 6.683417 .097681 6.292893 .488206L.292893 6.488206C-.097631 6.87873-.097631 7.511895 .292893 7.902419Z" fill="#929292" fill-rule="evenodd"/>
</svg>
