<svg xmlns="http://www.w3.org/2000/svg" xmlns:xlink="http://www.w3.org/1999/xlink" xmlns:inkscape="http://www.inkscape.org/namespaces/inkscape" version="1.1" width="24" height="24" viewBox="0 0 24 24">
<path transform="matrix(1,0,0,-1,3,23.097657)" d="M0 13.097656C0 18.068219 4.029437 22.097657 9 22.097657 13.970562 22.097657 18 18.068219 18 13.097656 18 10.571479 16.853169 8.357424 15.292278 6.330643 13.987955 4.637011 12.318336 2.981861 10.650642 1.328619L10.649469 1.327457C10.334461 1.015177 10.019515 .702957 9.707107 .390549 9.316583 .000025 8.683417 .000025 8.292893 .390549 7.980262 .703178 7.664395 1.016312 7.34916 1.328815 5.681465 2.982058 4.012045 4.637009 2.707722 6.330643 1.146831 8.357424 0 10.571479 0 13.097656ZM12 13.097656C12 11.440802 10.656855 10.097656 9 10.097656 7.343146 10.097656 6 11.440802 6 13.097656 6 14.754511 7.343146 16.097657 9 16.097657 10.656855 16.097657 12 14.754511 12 13.097656Z" fill="#0258c9" fill-rule="evenodd"/>
</svg>
