<svg width="20" height="20" viewBox="0 0 20 20" fill="none" xmlns="http://www.w3.org/2000/svg">
<path d="M7.51764 2.06812C7.29536 2.00856 6.99435 1.99997 6 1.99997H5.5C4.78741 1.99997 4.30304 2.00052 3.92661 2.0262C3.55915 2.05127 3.36813 2.09692 3.23463 2.15222C2.74458 2.3552 2.35523 2.74455 2.15224 3.23461C2.09695 3.36811 2.0513 3.55912 2.02623 3.92658C2.00054 4.30302 2 4.78738 2 5.49997V14.5C2 15.2126 2.00054 15.6969 2.02623 16.0734C2.0513 16.4408 2.09694 16.6318 2.15224 16.7653C2.35523 17.2554 2.74458 17.6447 3.23463 17.8477C3.36813 17.903 3.55915 17.9487 3.9266 17.9737C4.30304 17.9994 4.78741 18 5.5 18H6C6.99435 18 7.29536 17.9914 7.51764 17.9318C8.20782 17.7469 8.74692 17.2078 8.93185 16.5176C8.99141 16.2953 9 15.9943 9 15C9 14.4477 9.44772 14 10 14C10.5523 14 11 14.4477 11 15L11.0001 15.1375C11.0005 15.9329 11.0008 16.5236 10.8637 17.0353C10.4938 18.4156 9.41565 19.4938 8.03528 19.8637C7.52363 20.0008 6.93296 20.0005 6.13758 20L5.46573 20C4.79594 20 4.24307 20 3.79046 19.9691C3.32118 19.9371 2.88708 19.8686 2.46927 19.6955C1.48915 19.2895 0.710459 18.5108 0.304483 17.5307C0.131419 17.1129 0.0628847 16.6788 0.0308656 16.2095C-1.53761e-05 15.7569 -8.29484e-06 15.204 2.84741e-07 14.5343V5.46571C-8.29484e-06 4.79592 -1.53761e-05 4.24304 0.0308657 3.79044C0.0628849 3.32115 0.131419 2.88705 0.304484 2.46924C0.71046 1.48913 1.48916 0.710432 2.46927 0.304456C2.88708 0.131392 3.32118 0.0628582 3.79046 0.0308391C4.24307 -4.20716e-05 4.79594 -3.47993e-05 5.46573 -2.58586e-05L6.13758 -7.48536e-05C6.93297 -0.000505557 7.52363 -0.00082539 8.03528 0.136271C9.41565 0.50614 10.4938 1.58433 10.8637 2.9647C11.0008 3.47635 11.0005 4.067 11.0001 4.86238L11 4.99997C11 5.55226 10.5523 5.99997 10 5.99997C9.44772 5.99997 9 5.55226 9 4.99997C9 4.00562 8.99141 3.70461 8.93185 3.48234C8.74692 2.79215 8.20782 2.25306 7.51764 2.06812Z" fill="#0258C9"/>
<path d="M13.2929 4.29289C13.6834 3.90237 14.3166 3.90237 14.7071 4.29289L19.7071 9.29289C20.0976 9.68342 20.0976 10.3166 19.7071 10.7071L14.7071 15.7071C14.3166 16.0976 13.6834 16.0976 13.2929 15.7071C12.9024 15.3166 12.9024 14.6834 13.2929 14.2929L16.5858 11H7C6.44772 11 6 10.5523 6 10C6 9.44771 6.44772 9 7 9H16.5858L13.2929 5.70711C12.9024 5.31658 12.9024 4.68342 13.2929 4.29289Z" fill="#0258C9"/>
</svg>
