<svg width="18" height="20" viewBox="0 0 18 20" fill="none" xmlns="http://www.w3.org/2000/svg">
<path fill-rule="evenodd" clip-rule="evenodd" d="M5.78633 12.5C7.92899 12.5005 10.0717 12.5005 12.2143 12.5C12.941 12.4998 13.4362 12.4997 13.8686 12.576C15.9386 12.941 17.5594 14.5617 17.9244 16.6318C18.0006 17.0642 18.0005 17.5593 18.0003 18.286C18.0003 18.4444 18.0052 18.6038 17.9775 18.7605C17.868 19.3815 17.3818 19.8677 16.7608 19.9772C16.6246 20.0012 16.4812 20.0005 16.4098 20.0001C11.4707 19.9736 6.52999 19.9736 1.59084 20.0001C1.51947 20.0005 1.37602 20.0012 1.23985 19.9772C0.618833 19.8677 0.132613 19.3815 0.023111 18.7605C-0.00451178 18.6038 0.000342658 18.4444 0.000307454 18.286C0.000147237 17.5593 3.80427e-05 17.0642 0.0762843 16.6318C0.441292 14.5617 2.06202 12.941 4.13208 12.576C4.56449 12.4997 5.05965 12.4998 5.78633 12.5Z" fill="#F3E093"/>
<path fill-rule="evenodd" clip-rule="evenodd" d="M3.50032 5.5C3.50032 2.46243 5.96276 0 9.00032 0C12.0379 0 14.5003 2.46243 14.5003 5.5C14.5003 8.53757 12.0379 11 9.00032 11C5.96276 11 3.50032 8.53757 3.50032 5.5Z" fill="#F3E093"/>
</svg>
