<svg width="24" height="24" viewBox="0 0 24 24" fill="none" xmlns="http://www.w3.org/2000/svg">
<path d="M23.6872 15.2016C23.1015 14.8552 22.368 14.7992 21.7135 15.0895C21.7135 15.0895 21.7109 15.0921 21.7007 15.0946C21.6982 15.0972 21.6931 15.0972 21.6905 15.0997C21.693 15.0997 21.6905 15.0997 21.6829 15.1023L21.6778 15.1048L21.6752 15.1073C21.6651 15.1099 21.6548 15.115 21.6421 15.1201C21.4027 15.227 20.4681 15.6422 17.2897 17.048V17.0429C16.5766 16.0318 15.321 16.778 13.6198 16.9257C10.9814 15.5734 8.4906 14.2491 5.75793 14.3331V19.745H6.21126L11.8855 21.9862C12.8125 22.3529 13.8643 22.2587 14.7149 21.7366L23.6923 16.1974C24.0616 15.9682 24.0642 15.4232 23.6872 15.2016ZM4.71787 13.6667H4.26243V13.326C4.26243 13.0597 4.04662 12.8439 3.78032 12.8439H0.512383C0.246086 12.8439 0.0302734 13.0597 0.0302734 13.326V21.0483C0.0302734 21.3146 0.246086 21.5304 0.512383 21.5304H3.78032C4.04662 21.5304 4.26243 21.3146 4.26243 21.0483V20.7076H4.71787C5.01145 20.7076 5.24943 20.4695 5.24943 20.176V14.1983C5.24948 13.9047 5.01145 13.6667 4.71787 13.6667ZM2.78765 20.7909C2.45999 20.7909 2.19159 20.5226 2.19159 20.1949C2.19159 19.8673 2.45999 19.5989 2.78765 19.5989C3.11526 19.5989 3.38366 19.8673 3.38366 20.1949C3.38366 20.5226 3.11526 20.7909 2.78765 20.7909Z" fill="#0258C9"/>
<path d="M9.06998 9.16083L10.0883 9.27792C10.2105 9.80747 10.4193 10.3167 10.7095 10.775L10.068 11.5795C9.89995 11.7933 9.9203 12.0938 10.1087 12.2821L10.8113 12.9848C10.9997 13.1732 11.3002 13.1936 11.514 13.0255L12.3185 12.384C12.7768 12.6743 13.2859 12.883 13.8155 13.0051L13.9326 14.0235C14.0124 14.7285 14.9377 14.424 15.4449 14.492C15.7148 14.492 15.9388 14.2934 15.9694 14.0235L16.0865 13.0051C16.6161 12.883 17.1252 12.6742 17.5835 12.3839L18.388 13.0255C18.6018 13.1935 18.9023 13.1732 19.0906 12.9848L19.7933 12.2821C19.9817 12.0938 20.0021 11.7933 19.8341 11.5794L19.1925 10.7749C19.4827 10.3167 19.6915 9.80752 19.8137 9.27797L20.832 9.16083C21.1019 9.13031 21.3005 8.9063 21.3005 8.63634V7.64855C21.3005 7.37869 21.1019 7.15467 20.832 7.12406L19.8137 7.00692C19.6915 6.47742 19.4827 5.96817 19.1925 5.50997L19.8341 4.70545C20.0021 4.49161 19.9817 4.19119 19.7933 4.0028L19.0906 3.30014C18.9023 3.11175 18.6018 3.09136 18.388 3.25941L17.5835 3.90094C17.1252 3.61069 16.6161 3.40195 16.0865 3.2798L15.9694 2.26139C15.9388 1.99148 15.7148 1.79297 15.4449 1.79297H14.4571C14.1872 1.79297 13.9632 1.99158 13.9326 2.26139L13.8155 3.2798C13.2859 3.40195 12.7768 3.61069 12.3185 3.90094L11.514 3.25941C11.3002 3.09141 10.9997 3.1118 10.8113 3.30019L10.1087 4.00284C9.9203 4.19123 9.89995 4.49161 10.068 4.7055L10.7095 5.50997C10.4193 5.96827 10.2105 6.47742 10.0883 7.00702L9.06998 7.12416C8.80012 7.15467 8.60156 7.37878 8.60156 7.64864V8.63644C8.60156 8.9063 8.80012 9.13031 9.06998 9.16083ZM13.3125 6.50906C14.2172 5.60433 15.6806 5.60433 16.5853 6.50906C17.484 7.4077 17.484 8.87714 16.5853 9.77583C15.6806 10.6806 14.2172 10.6806 13.3125 9.77583C12.4077 8.87719 12.4077 7.4077 13.3125 6.50906Z" fill="#0258C9"/>
</svg>
