<svg width="32" height="32" viewBox="0 0 32 32" fill="none" xmlns="http://www.w3.org/2000/svg">
<path fill-rule="evenodd" clip-rule="evenodd" d="M25.7148 21.2807C25.6364 20.8482 25.6893 20.4021 25.8668 19.9999C26.0358 19.6056 26.3165 19.2692 26.6742 19.0323C27.0319 18.7954 27.4511 18.6683 27.8802 18.6666H28.0002C28.7074 18.6666 29.3857 18.3856 29.8858 17.8855C30.3859 17.3854 30.6668 16.7072 30.6668 15.9999C30.6668 15.2927 30.3859 14.6144 29.8858 14.1143C29.3857 13.6142 28.7074 13.3333 28.0002 13.3333H27.7735C27.3444 13.3315 26.9253 13.2044 26.5675 12.9675C26.2098 12.7306 25.9292 12.3943 25.7602 11.9999V11.8933C25.5827 11.4911 25.5297 11.045 25.6082 10.6125C25.6866 10.1799 25.8928 9.78082 26.2002 9.46658L26.2802 9.38658C26.5281 9.13892 26.7248 8.84482 26.859 8.52109C26.9932 8.19736 27.0623 7.85036 27.0623 7.49992C27.0623 7.14948 26.9932 6.80247 26.859 6.47874C26.7248 6.15502 26.5281 5.86091 26.2802 5.61325C26.0325 5.36531 25.7384 5.16862 25.4147 5.03443C25.0909 4.90023 24.7439 4.83115 24.3935 4.83115C24.0431 4.83115 23.696 4.90023 23.3723 5.03443C23.0486 5.16862 22.7545 5.36531 22.5068 5.61325L22.4268 5.69325C22.1126 6.00063 21.7135 6.20683 21.2809 6.28526C20.8484 6.36368 20.4023 6.31074 20.0002 6.13325C19.6058 5.96423 19.2695 5.68359 19.0326 5.32587C18.7957 4.96815 18.6685 4.54897 18.6668 4.11992V3.99992C18.6668 3.29267 18.3859 2.6144 17.8858 2.1143C17.3857 1.6142 16.7074 1.33325 16.0002 1.33325C15.2929 1.33325 14.6146 1.6142 14.1145 2.1143C13.6144 2.6144 13.3335 3.29267 13.3335 3.99992V4.22659C13.3318 4.65563 13.2047 5.07482 12.9678 5.43254C12.7309 5.79026 12.3945 6.0709 12.0002 6.23992H11.8935C11.4913 6.41741 11.0452 6.47035 10.6127 6.39192C10.1802 6.3135 9.78107 6.1073 9.46683 5.79992L9.38683 5.71992C9.13917 5.47198 8.84506 5.27529 8.52134 5.14109C8.19761 5.00689 7.8506 4.93782 7.50016 4.93782C7.14972 4.93782 6.80272 5.00689 6.47899 5.14109C6.15526 5.27529 5.86116 5.47198 5.6135 5.71992C5.36556 5.96758 5.16887 6.26168 5.03467 6.58541C4.90047 6.90914 4.8314 7.25614 4.8314 7.60659C4.8314 7.95703 4.90047 8.30403 5.03467 8.62776C5.16887 8.95149 5.36556 9.24559 5.6135 9.49325L5.6935 9.57325C6.00088 9.88749 6.20708 10.2866 6.2855 10.7191C6.36393 11.1517 6.31098 11.5978 6.1335 11.9999C5.98112 12.4142 5.70762 12.7731 5.34856 13.0299C4.9895 13.2867 4.56149 13.4296 4.12016 13.4399H4.00016C3.29292 13.4399 2.61464 13.7209 2.11454 14.221C1.61445 14.7211 1.3335 15.3993 1.3335 16.1066C1.3335 16.8138 1.61445 17.4921 2.11454 17.9922C2.61464 18.4923 3.29292 18.7733 4.00016 18.7733H4.22683C4.65588 18.775 5.07506 18.9021 5.43278 19.139C5.7905 19.3759 6.07115 19.7122 6.24016 20.1066C6.41765 20.5087 6.47059 20.9548 6.39217 21.3874C6.31374 21.8199 6.10754 22.219 5.80016 22.5333L5.72016 22.6132C5.47223 22.8609 5.27553 23.155 5.14134 23.4787C5.00714 23.8025 4.93806 24.1495 4.93806 24.4999C4.93806 24.8504 5.00714 25.1974 5.14134 25.5211C5.27553 25.8448 5.47223 26.1389 5.72016 26.3866C5.96782 26.6345 6.26193 26.8312 6.58565 26.9654C6.90938 27.0996 7.25639 27.1687 7.60683 27.1687C7.95727 27.1687 8.30428 27.0996 8.628 26.9654C8.95173 26.8312 9.24583 26.6345 9.49349 26.3866L9.57349 26.3066C9.88773 25.9992 10.2869 25.793 10.7194 25.7146C11.1519 25.6362 11.598 25.6891 12.0002 25.8666C12.4145 26.019 12.7734 26.2925 13.0302 26.6515C13.287 27.0106 13.4298 27.4386 13.4402 27.8799V27.9999C13.4402 28.7072 13.7211 29.3854 14.2212 29.8855C14.7213 30.3856 15.3996 30.6666 16.1068 30.6666C16.8141 30.6666 17.4923 30.3856 17.9924 29.8855C18.4925 29.3854 18.7735 28.7072 18.7735 27.9999V27.7733C18.7752 27.3442 18.9023 26.925 19.1392 26.5673C19.3761 26.2096 19.7125 25.9289 20.1068 25.7599C20.509 25.5824 20.9551 25.5295 21.3876 25.6079C21.8201 25.6863 22.2193 25.8925 22.5335 26.1999L22.6135 26.2799C22.8612 26.5279 23.1553 26.7245 23.479 26.8587C23.8027 26.9929 24.1497 27.062 24.5002 27.062C24.8506 27.062 25.1976 26.9929 25.5213 26.8587C25.8451 26.7245 26.1392 26.5279 26.3868 26.2799C26.6348 26.0323 26.8315 25.7382 26.9657 25.4144C27.0999 25.0907 27.1689 24.7437 27.1689 24.3933C27.1689 24.0428 27.0999 23.6958 26.9657 23.3721C26.8315 23.0483 26.6348 22.7542 26.3868 22.5066L26.3068 22.4266C25.9994 22.1123 25.7932 21.7132 25.7148 21.2807ZM20.0002 15.9999C20.0002 18.2091 18.2093 19.9999 16.0002 19.9999C13.791 19.9999 12.0002 18.2091 12.0002 15.9999C12.0002 13.7908 13.791 11.9999 16.0002 11.9999C18.2093 11.9999 20.0002 13.7908 20.0002 15.9999Z" fill="white"/>
</svg>
