<svg width="24" height="24" viewBox="0 0 24 24" fill="none" xmlns="http://www.w3.org/2000/svg">
<path d="M5.5 16.86H2.25V21.735H5.5V16.86ZM13.625 10.36H10.375V21.735H13.625V10.36ZM21.75 2.23499V21.735H18.5V2.23499H21.75ZM18.5 0.609985C18.069 0.609985 17.6557 0.78119 17.351 1.08594C17.0462 1.39068 16.875 1.80401 16.875 2.23499V21.735C16.875 22.166 17.0462 22.5793 17.351 22.884C17.6557 23.1888 18.069 23.36 18.5 23.36H21.75C22.181 23.36 22.5943 23.1888 22.899 22.884C23.2038 22.5793 23.375 22.166 23.375 21.735V2.23499C23.375 1.80401 23.2038 1.39068 22.899 1.08594C22.5943 0.78119 22.181 0.609985 21.75 0.609985H18.5ZM8.75 10.36C8.75 9.92901 8.92121 9.51568 9.22595 9.21094C9.5307 8.90619 9.94402 8.73499 10.375 8.73499H13.625C14.056 8.73499 14.4693 8.90619 14.774 9.21094C15.0788 9.51568 15.25 9.92901 15.25 10.36V21.735C15.25 22.166 15.0788 22.5793 14.774 22.884C14.4693 23.1888 14.056 23.36 13.625 23.36H10.375C9.94402 23.36 9.5307 23.1888 9.22595 22.884C8.92121 22.5793 8.75 22.166 8.75 21.735V10.36ZM0.625 16.86C0.625 16.429 0.796205 16.0157 1.10095 15.7109C1.4057 15.4062 1.81902 15.235 2.25 15.235H5.5C5.93098 15.235 6.3443 15.4062 6.64905 15.7109C6.95379 16.0157 7.125 16.429 7.125 16.86V21.735C7.125 22.166 6.95379 22.5793 6.64905 22.884C6.3443 23.1888 5.93098 23.36 5.5 23.36H2.25C1.81902 23.36 1.4057 23.1888 1.10095 22.884C0.796205 22.5793 0.625 22.166 0.625 21.735V16.86Z" fill="#0258C9"/>
</svg>
